<?xml version="1.0" encoding="iso-8859-1"?>
<!-- Generator: Adobe Illustrator 19.0.0, SVG Export Plug-In . SVG Version: 6.00 Build 0)  -->
<svg version="1.1" id="Layer_1" xmlns="http://www.w3.org/2000/svg" xmlns:xlink="http://www.w3.org/1999/xlink" x="0px" y="0px"
	 viewBox="0 0 496 496" style="enable-background:new 0 0 496 496;" xml:space="preserve">
<path style="fill:#F9BA48;" d="M248,56c-26.472,0-48,21.528-48,48c0,13.704,5.784,26.464,16,35.592V160h64v-20.408
	c10.216-9.136,16-21.888,16-35.592C296,77.528,274.472,56,248,56z M248,120c-8.84,0-16-7.16-16-16s7.16-16,16-16s16,7.16,16,16
	S256.84,120,248,120z"/>
<g>
	<path style="fill:#333333;" d="M496,272v-64H384v24h-86.112L256,211.056V184h12c11.032,0,20-8.968,20-20s-8.968-20-20-20h-12
		v-17.472c9.288-3.312,16-12.112,16-22.528c0-13.232-10.768-24-24-24s-24,10.768-24,24c0,10.416,6.712,19.216,16,22.528V144h-12
		c-11.032,0-20,8.968-20,20s8.968,20,20,20h12v27.056L182.112,240L240,268.944V296H64v-24h48v-64H0v64h48v24v8v32H0v64h112v-64H64
		v-24h176v24h-48v64h48v32h-16c-17.648,0-32,14.352-32,32s14.352,32,32,32h48c17.648,0,32-14.352,32-32s-14.352-32-32-32h-16v-32h48
		v-64h-48v-24v-16v-27.056L297.888,248H384v24h48v65.136c-13.768,3.576-24,15.992-24,30.864c0,17.648,14.352,32,32,32
		s32-14.352,32-32c0-14.872-10.232-27.288-24-30.864V272H496z M248,96c4.416,0,8,3.584,8,8s-3.584,8-8,8s-8-3.584-8-8
		S243.584,96,248,96z M224,164c0-2.2,1.8-4,4-4h40c2.2,0,4,1.8,4,4s-1.8,4-4,4h-40C225.8,168,224,166.2,224,164z M16,224h80v32H16
		V224z M96,384H16v-32h80V384z M288,464c0,8.824-7.176,16-16,16h-48c-8.824,0-16-7.176-16-16s7.176-16,16-16h48
		C280.824,448,288,455.176,288,464z M288,384h-80v-32h80V384z M248,255.056L217.888,240L248,224.944L278.112,240L248,255.056z
		 M456,368c0,8.824-7.176,16-16,16s-16-7.176-16-16s7.176-16,16-16S456,359.176,456,368z M400,224h80v32h-80V224z"/>
	<path style="fill:#333333;" d="M144,48c10.416,0,19.216-6.712,22.528-16h31.04c-20.616,14.488-34.76,37.552-37.16,64H144v48h48V96
		h-15.528C180.464,60.056,211,32,248,32s67.536,28.056,71.528,64H304v48h48V96h-16.408c-2.4-26.448-16.536-49.512-37.16-64h31.04
		c3.312,9.288,12.112,16,22.528,16c13.232,0,24-10.768,24-24S365.232,0,352,0c-10.416,0-19.216,6.712-22.528,16H166.528
		C163.216,6.712,154.416,0,144,0c-13.232,0-24,10.768-24,24S130.768,48,144,48z M176,128h-16v-16h16V128z M336,128h-16v-16h16V128z
		 M352,16c4.416,0,8,3.584,8,8s-3.584,8-8,8s-8-3.584-8-8S347.584,16,352,16z M144,16c4.416,0,8,3.584,8,8s-3.584,8-8,8
		s-8-3.584-8-8S139.584,16,144,16z"/>
</g>
<g>
</g>
<g>
</g>
<g>
</g>
<g>
</g>
<g>
</g>
<g>
</g>
<g>
</g>
<g>
</g>
<g>
</g>
<g>
</g>
<g>
</g>
<g>
</g>
<g>
</g>
<g>
</g>
<g>
</g>
</svg>
